<mxfile host="app.diagrams.net" modified="2023-04-14T02:48:34.300Z" agent="Mozilla/5.0 (Macintosh; Intel Mac OS X 10_15_7) AppleWebKit/537.36 (KHTML, like Gecko) Chrome/112.0.0.0 Safari/537.36" etag="yNIOYnOMAZiY9mEvab1G" version="21.1.4" type="github">
  <diagram name="第 1 页" id="HRcxcrK3ZkO5NUu4co4i">
    <mxGraphModel dx="984" dy="590" grid="0" gridSize="10" guides="1" tooltips="1" connect="1" arrows="1" fold="1" page="1" pageScale="1" pageWidth="827" pageHeight="1169" math="0" shadow="0">
      <root>
        <mxCell id="0" />
        <mxCell id="1" parent="0" />
        <mxCell id="2YMMAhFU2wO2v0AL_SUN-2" value="&lt;font style=&quot;font-size: 20px;&quot;&gt;&amp;nbsp; &amp;nbsp; &amp;nbsp; &amp;nbsp; &amp;nbsp; &amp;nbsp; &amp;nbsp; &amp;nbsp; &amp;nbsp; &amp;nbsp; &amp;nbsp; &amp;nbsp;操作区域&lt;/font&gt;" style="rounded=0;whiteSpace=wrap;html=1;" vertex="1" parent="1">
          <mxGeometry x="47" y="44" width="502" height="377" as="geometry" />
        </mxCell>
        <mxCell id="2YMMAhFU2wO2v0AL_SUN-3" value="&lt;font style=&quot;font-size: 19px;&quot;&gt;菜单栏&lt;/font&gt;" style="rounded=0;whiteSpace=wrap;html=1;" vertex="1" parent="1">
          <mxGeometry x="47" y="44" width="122" height="378" as="geometry" />
        </mxCell>
        <mxCell id="2YMMAhFU2wO2v0AL_SUN-4" value="头像和退出按钮" style="rounded=0;whiteSpace=wrap;html=1;" vertex="1" parent="1">
          <mxGeometry x="425" y="53" width="115" height="44" as="geometry" />
        </mxCell>
        <mxCell id="2YMMAhFU2wO2v0AL_SUN-5" value="图标和收起按钮" style="text;html=1;strokeColor=none;fillColor=none;align=center;verticalAlign=middle;whiteSpace=wrap;rounded=0;" vertex="1" parent="1">
          <mxGeometry x="50" y="50" width="113" height="30" as="geometry" />
        </mxCell>
      </root>
    </mxGraphModel>
  </diagram>
</mxfile>
